0
SECTION
2
HEADER
9
$ACADVER
1
AC1027
9
$INSUNITS
70
5
9
$EXTMIN
10
0.0
20
0.0
30
0.0
9
$EXTMAX
10
2000.0
20
1500.0
30
0.0
0
ENDSEC
0
SECTION
2
TABLES
0
TABLE
2
LAYER
70
21
0
LAYER
2
0
70
0
62
7
6
CONTINUOUS
0
LAYER
2
MTR-DUVAR-DIS
70
0
62
1
6
CONTINUOUS
0
LAYER
2
MTR-DUVAR-IC
70
0
62
3
6
CONTINUOUS
0
LAYER
2
MTR-PERDE
70
0
62
5
6
CONTINUOUS
0
LAYER
2
MTR-KOLON
70
0
62
6
6
CONTINUOUS
0
LAYER
2
MTR-KIRIS
70
0
62
4
6
CONTINUOUS
0
LAYER
2
MTR-DOSEME
70
0
62
8
6
CONTINUOUS
0
LAYER
2
MTR-BINA
70
0
62
2
6
CONTINUOUS
0
LAYER
2
MTR-MAHAL
70
0
62
30
6
CONTINUOUS
0
LAYER
2
MTR-ISLAK
70
0
62
140
6
CONTINUOUS
0
LAYER
2
MTR-KAPI
70
0
62
32
6
CONTINUOUS
0
LAYER
2
MTR-KAPI-DIS
70
0
62
20
6
CONTINUOUS
0
LAYER
2
MTR-PENCERE
70
0
62
50
6
CONTINUOUS
0
LAYER
2
MTR-MERDIVEN
70
0
62
40
6
CONTINUOUS
0
LAYER
2
MTR-CATI
70
0
62
52
6
CONTINUOUS
0
LAYER
2
MTR-PARSEL
70
0
62
94
6
CONTINUOUS
0
LAYER
2
MTR-OLCU
70
0
62
9
6
CONTINUOUS
0
LAYER
2
MTR-YAZI
70
0
62
9
6
CONTINUOUS
0
LAYER
2
MTR-AKS
70
0
62
9
6
CONTINUOUS
0
LAYER
2
MTR-MOBILYA
70
0
62
9
6
CONTINUOUS
0
LAYER
2
MTR-TARAMA
70
0
62
9
6
CONTINUOUS
0
ENDTAB
0
ENDSEC
0
SECTION
2
ENTITIES
0
TEXT
8
MTR-YAZI
10
20.0
20
1450.0
30
0.0
40
12.0
1
MTR-DUVAR-DIS  -  Dis duvar ekseni - tek cizgi
0
TEXT
8
MTR-YAZI
10
20.0
20
1425.0
30
0.0
40
12.0
1
MTR-DUVAR-IC  -  Ic bolme duvar ekseni - tek cizgi
0
TEXT
8
MTR-YAZI
10
20.0
20
1400.0
30
0.0
40
12.0
1
MTR-PERDE  -  Betonarme perde ekseni
0
TEXT
8
MTR-YAZI
10
20.0
20
1375.0
30
0.0
40
12.0
1
MTR-KOLON  -  Kolon kesiti - kapali polyline
0
TEXT
8
MTR-YAZI
10
20.0
20
1350.0
30
0.0
40
12.0
1
MTR-KIRIS  -  Kiris ekseni
0
TEXT
8
MTR-YAZI
10
20.0
20
1325.0
30
0.0
40
12.0
1
MTR-DOSEME  -  Kat doseme siniri - KAPALI polyline
0
TEXT
8
MTR-YAZI
10
20.0
20
1300.0
30
0.0
40
12.0
1
MTR-BINA  -  Bina oturum siniri - KAPALI polyline
0
TEXT
8
MTR-YAZI
10
20.0
20
1275.0
30
0.0
40
12.0
1
MTR-MAHAL  -  Her oda icin bir KAPALI polyline
0
TEXT
8
MTR-YAZI
10
20.0
20
1250.0
30
0.0
40
12.0
1
MTR-ISLAK  -  Banyo/WC/mutfak siniri - KAPALI polyline
0
TEXT
8
MTR-YAZI
10
20.0
20
1225.0
30
0.0
40
12.0
1
MTR-KAPI  -  Ic kapi - blok, 1 kapi = 1 blok
0
TEXT
8
MTR-YAZI
10
20.0
20
1200.0
30
0.0
40
12.0
1
MTR-KAPI-DIS  -  Daire girisi / dis kapi - blok
0
TEXT
8
MTR-YAZI
10
20.0
20
1175.0
30
0.0
40
12.0
1
MTR-PENCERE  -  Pencere - blok
0
TEXT
8
MTR-YAZI
10
20.0
20
1150.0
30
0.0
40
12.0
1
MTR-MERDIVEN  -  Merdiven kolu ekseni
0
TEXT
8
MTR-YAZI
10
20.0
20
1125.0
30
0.0
40
12.0
1
MTR-CATI  -  Cati siniri - KAPALI polyline
0
TEXT
8
MTR-YAZI
10
20.0
20
1100.0
30
0.0
40
12.0
1
MTR-PARSEL  -  Parsel siniri - KAPALI polyline
0
TEXT
8
MTR-YAZI
10
20.0
20
1075.0
30
0.0
40
12.0
1
MTR-OLCU  -  Olcu ve kot - metraja girmez
0
TEXT
8
MTR-YAZI
10
20.0
20
1050.0
30
0.0
40
12.0
1
MTR-YAZI  -  Mahal adi ve notlar - metraja girmez
0
TEXT
8
MTR-YAZI
10
20.0
20
1025.0
30
0.0
40
12.0
1
MTR-AKS  -  Aks cizgileri - metraja girmez
0
TEXT
8
MTR-YAZI
10
20.0
20
1000.0
30
0.0
40
12.0
1
MTR-MOBILYA  -  Mobilya ve donanim - metraja girmez
0
TEXT
8
MTR-YAZI
10
20.0
20
975.0
30
0.0
40
12.0
1
MTR-TARAMA  -  Sus taramalari - metraja girmez
0
ENDSEC
0
EOF
