0
SECTION
2
HEADER
9
$ACADVER
1
AC1027
9
$INSUNITS
70
5
9
$EXTMIN
10
0.0
20
0.0
30
0.0
9
$EXTMAX
10
2000.0
20
1500.0
30
0.0
0
ENDSEC
0
SECTION
2
TABLES
0
TABLE
2
LAYER
70
21
0
LAYER
2
0
70
0
62
7
6
CONTINUOUS
0
LAYER
2
MTR-DUVAR-DIS
70
0
62
1
6
CONTINUOUS
0
LAYER
2
MTR-DUVAR-IC
70
0
62
3
6
CONTINUOUS
0
LAYER
2
MTR-PERDE
70
0
62
5
6
CONTINUOUS
0
LAYER
2
MTR-KOLON
70
0
62
6
6
CONTINUOUS
0
LAYER
2
MTR-KIRIS
70
0
62
4
6
CONTINUOUS
0
LAYER
2
MTR-DOSEME
70
0
62
8
6
CONTINUOUS
0
LAYER
2
MTR-BINA
70
0
62
2
6
CONTINUOUS
0
LAYER
2
MTR-MAHAL
70
0
62
30
6
CONTINUOUS
0
LAYER
2
MTR-ISLAK
70
0
62
140
6
CONTINUOUS
0
LAYER
2
MTR-KAPI
70
0
62
32
6
CONTINUOUS
0
LAYER
2
MTR-KAPI-DIS
70
0
62
20
6
CONTINUOUS
0
LAYER
2
MTR-PENCERE
70
0
62
50
6
CONTINUOUS
0
LAYER
2
MTR-MERDIVEN
70
0
62
40
6
CONTINUOUS
0
LAYER
2
MTR-CATI
70
0
62
52
6
CONTINUOUS
0
LAYER
2
MTR-PARSEL
70
0
62
94
6
CONTINUOUS
0
LAYER
2
MTR-OLCU
70
0
62
9
6
CONTINUOUS
0
LAYER
2
MTR-YAZI
70
0
62
9
6
CONTINUOUS
0
LAYER
2
MTR-AKS
70
0
62
9
6
CONTINUOUS
0
LAYER
2
MTR-MOBILYA
70
0
62
9
6
CONTINUOUS
0
LAYER
2
MTR-TARAMA
70
0
62
9
6
CONTINUOUS
0
ENDTAB
0
ENDSEC
0
SECTION
2
ENTITIES
0
LWPOLYLINE
8
MTR-DUVAR-DIS
90
4
70
1
10
0.0
20
0.0
10
1400.0
20
0.0
10
1400.0
20
1000.0
10
0.0
20
1000.0
0
LINE
8
MTR-DUVAR-IC
10
800.0
20
0.0
30
0.0
11
800.0
21
600.0
31
0.0
0
LINE
8
MTR-DUVAR-IC
10
0.0
20
600.0
30
0.0
11
800.0
21
600.0
31
0.0
0
LINE
8
MTR-DUVAR-IC
10
800.0
20
350.0
30
0.0
11
1400.0
21
350.0
31
0.0
0
LINE
8
MTR-DUVAR-IC
10
400.0
20
600.0
30
0.0
11
400.0
21
1000.0
31
0.0
0
LWPOLYLINE
8
MTR-BINA
90
4
70
1
10
0.0
20
0.0
10
1400.0
20
0.0
10
1400.0
20
1000.0
10
0.0
20
1000.0
0
LWPOLYLINE
8
MTR-DOSEME
90
4
70
1
10
0.0
20
0.0
10
1400.0
20
0.0
10
1400.0
20
1000.0
10
0.0
20
1000.0
0
LWPOLYLINE
8
MTR-MAHAL
90
4
70
1
10
0.0
20
0.0
10
800.0
20
0.0
10
800.0
20
600.0
10
0.0
20
600.0
0
LWPOLYLINE
8
MTR-MAHAL
90
4
70
1
10
800.0
20
0.0
10
1400.0
20
0.0
10
1400.0
20
350.0
10
800.0
20
350.0
0
LWPOLYLINE
8
MTR-MAHAL
90
4
70
1
10
800.0
20
350.0
10
1400.0
20
350.0
10
1400.0
20
1000.0
10
800.0
20
1000.0
0
LWPOLYLINE
8
MTR-MAHAL
90
4
70
1
10
0.0
20
600.0
10
400.0
20
600.0
10
400.0
20
1000.0
10
0.0
20
1000.0
0
LWPOLYLINE
8
MTR-MAHAL
90
4
70
1
10
400.0
20
600.0
10
800.0
20
600.0
10
800.0
20
1000.0
10
400.0
20
1000.0
0
LWPOLYLINE
8
MTR-ISLAK
90
4
70
1
10
0.0
20
600.0
10
400.0
20
600.0
10
400.0
20
1000.0
10
0.0
20
1000.0
0
LWPOLYLINE
8
MTR-ISLAK
90
4
70
1
10
800.0
20
0.0
10
1100.0
20
0.0
10
1100.0
20
350.0
10
800.0
20
350.0
0
CIRCLE
8
MTR-KAPI
10
800.0
20
200.0
30
0.0
40
5.0
0
CIRCLE
8
MTR-KAPI
10
400.0
20
600.0
30
0.0
40
5.0
0
CIRCLE
8
MTR-KAPI
10
200.0
20
600.0
30
0.0
40
5.0
0
CIRCLE
8
MTR-KAPI
10
1100.0
20
350.0
30
0.0
40
5.0
0
CIRCLE
8
MTR-KAPI
10
600.0
20
600.0
30
0.0
40
5.0
0
CIRCLE
8
MTR-KAPI
10
800.0
20
500.0
30
0.0
40
5.0
0
CIRCLE
8
MTR-KAPI-DIS
10
0.0
20
300.0
30
0.0
40
5.0
0
CIRCLE
8
MTR-PENCERE
10
200.0
20
0.0
30
0.0
40
5.0
0
CIRCLE
8
MTR-PENCERE
10
500.0
20
0.0
30
0.0
40
5.0
0
CIRCLE
8
MTR-PENCERE
10
1000.0
20
0.0
30
0.0
40
5.0
0
CIRCLE
8
MTR-PENCERE
10
1400.0
20
200.0
30
0.0
40
5.0
0
CIRCLE
8
MTR-PENCERE
10
1400.0
20
700.0
30
0.0
40
5.0
0
CIRCLE
8
MTR-PENCERE
10
1000.0
20
1000.0
30
0.0
40
5.0
0
CIRCLE
8
MTR-PENCERE
10
600.0
20
1000.0
30
0.0
40
5.0
0
CIRCLE
8
MTR-PENCERE
10
0.0
20
800.0
30
0.0
40
5.0
0
LINE
8
MTR-MERDIVEN
10
850.0
20
650.0
30
0.0
11
1250.0
21
650.0
31
0.0
0
LWPOLYLINE
8
MTR-CATI
90
4
70
1
10
-50.0
20
-50.0
10
1450.0
20
-50.0
10
1450.0
20
1050.0
10
-50.0
20
1050.0
0
LWPOLYLINE
8
MTR-PARSEL
90
4
70
1
10
-400.0
20
-400.0
10
1800.0
20
-400.0
10
1800.0
20
1400.0
10
-400.0
20
1400.0
0
LINE
8
MTR-OLCU
10
0.0
20
-100.0
30
0.0
11
1400.0
21
-100.0
31
0.0
0
LINE
8
MTR-AKS
10
-200.0
20
500.0
30
0.0
11
1600.0
21
500.0
31
0.0
0
LWPOLYLINE
8
MTR-MOBILYA
90
4
70
1
10
100.0
20
100.0
10
300.0
20
100.0
10
300.0
20
250.0
10
100.0
20
250.0
0
ENDSEC
0
EOF
